<?xml version="1.0" encoding="UTF-8" standalone="no"?>
<!-- Created with Inkscape (http://www.inkscape.org/) -->

<svg
   xmlns:dc="http://purl.org/dc/elements/1.1/"
   xmlns:cc="http://creativecommons.org/ns#"
   xmlns:rdf="http://www.w3.org/1999/02/22-rdf-syntax-ns#"
   xmlns:svg="http://www.w3.org/2000/svg"
   xmlns="http://www.w3.org/2000/svg"
   xmlns:sodipodi="http://sodipodi.sourceforge.net/DTD/sodipodi-0.dtd"
   xmlns:inkscape="http://www.inkscape.org/namespaces/inkscape"
   version="1.0"
   width="361.29004"
   height="400"
   id="svg2"
   inkscape:version="0.48.2 r9819"
   sodipodi:docname="Kosovo_geo_stub.svg">
  <metadata
     id="metadata2998">
    <rdf:RDF>
      <cc:Work
         rdf:about="">
        <dc:format>image/svg+xml</dc:format>
        <dc:type
           rdf:resource="http://purl.org/dc/dcmitype/StillImage" />
      </cc:Work>
    </rdf:RDF>
  </metadata>
  <sodipodi:namedview
     pagecolor="#ffffff"
     bordercolor="#666666"
     borderopacity="1"
     objecttolerance="10"
     gridtolerance="10"
     guidetolerance="10"
     inkscape:pageopacity="0"
     inkscape:pageshadow="2"
     inkscape:window-width="1440"
     inkscape:window-height="839"
     id="namedview2996"
     showgrid="false"
     inkscape:zoom="0.59"
     inkscape:cx="-126.9821"
     inkscape:cy="200"
     inkscape:window-x="-9"
     inkscape:window-y="-9"
     inkscape:window-maximized="1"
     inkscape:current-layer="svg2" />
  <defs
     id="defs4" />
  <path
     d="M 154.64388,0.140502 C 156.06474,0.105422 158.90651,0.035092002 160.32741,1.2001953e-005 C 163.67297,3.486032 167.12746,6.868932 170.55506,10.282132 C 170.49975,12.895036 171.58383,14.842285 174.25228,15.609204 C 171.89231,16.219977 169.45503,16.456091 167.05059,16.711463 C 166.05816,18.051163 164.82518,19.112469 163.35167,19.895519 C 163.77282,23.798638 167.31829,25.982001 169.7547,28.649503 C 172.30084,28.891483 175.14189,28.804085 177.09163,30.783612 C 178.95402,30.840628 180.82494,30.886353 182.70434,30.920817 C 182.70367,33.348512 182.69918,35.773398 182.72158,38.211123 C 185.04494,37.972976 187.95199,38.400016 188.63141,35.496014 C 192.71381,35.461328 196.80118,35.445501 200.89302,35.528983 C 201.95279,37.790668 204.49324,37.899372 206.50462,38.861202 C 206.75409,40.132376 207.25308,42.674585 207.50258,43.945759 C 209.54348,41.290861 211.51474,37.864673 215.29322,37.747751 C 216.45629,39.375806 217.68523,40.98286 218.92336,42.574971 C 221.04286,42.746238 223.28295,42.951333 224.20178,45.264084 C 225.14813,45.300968 227.0408,45.374807 227.98712,45.411623 C 228.03139,49.944608 227.69055,54.509719 228.25003,59.024386 C 228.82095,59.364734 229.96282,60.045583 230.53376,60.386015 C 230.5628,64.029362 230.5565,67.677731 230.51397,71.327664 C 232.79804,73.253469 236.59271,74.992636 238.59783,71.635043 C 239.67496,71.619312 240.76379,71.615632 241.86425,71.624169 C 243.25093,73.643542 244.94898,75.40598 247.01887,76.759224 C 247.05048,80.310954 247.0292,83.865271 247.07331,87.424043 C 251.80909,89.131348 248.77649,95.559755 249.66881,99.42841 C 252.06284,101.04175 253.98281,103.20397 255.08453,105.90977 C 255.75603,104.69865 256.45885,103.50563 257.1598,102.31167 C 259.88234,102.3509 262.61673,102.39178 265.35715,102.47582 C 266.56977,103.91952 267.81172,105.35295 269.08734,106.76548 C 269.65811,107.37288 270.79961,108.58752 271.37036,109.19475 C 273.24919,109.67419 275.13339,110.25386 276.64679,111.56138 C 278.24259,111.65464 279.84956,111.75222 281.46771,111.85403 C 282.78135,114.76758 286.0566,114.35691 288.70242,114.91238 C 287.80522,115.579 286.0108,116.91203 285.11361,117.57856 C 285.02973,123.52135 285.55979,129.51369 284.86899,135.43087 C 284.3198,135.7417 283.22141,136.3635 282.67222,136.6744 C 282.6151,139.71561 282.07137,142.68775 280.07204,145.10464 C 281.31805,145.09242 283.81009,145.06814 285.0561,145.05601 C 285.11248,145.75425 285.22522,147.1508 285.28159,147.84904 L 287.60293,147.85633 C 287.67016,147.15394 287.80459,145.74924 287.87182,145.04685 C 289.31296,145.05389 290.76311,145.06493 292.22223,145.08006 C 292.26858,145.74203 292.36132,147.06607 292.40771,147.72805 C 295.00668,148.18955 298.77407,146.74757 300.19621,149.77758 C 306.90648,149.91533 313.62228,149.84038 320.34044,149.81533 C 320.41075,150.70128 320.55141,152.47335 320.62174,153.35938 C 321.64658,154.54849 322.67234,155.74911 323.69904,156.96123 C 325.95034,156.97548 328.20034,156.98513 330.47675,157.01119 C 330.43118,158.00992 330.34002,160.00753 330.29444,161.00634 C 332.34546,162.86549 334.61144,164.50121 337.54035,164.48844 C 337.55522,163.25298 337.58491,160.78198 337.59979,159.5465 C 338.70001,159.55935 340.90077,159.58503 342.00106,159.59788 C 342.08595,158.91092 342.25581,157.53692 342.3407,156.85002 C 345.51575,157.05122 349.67127,156.04755 350.43577,160.30261 C 351.08553,159.34117 352.38513,157.4185 353.03489,156.45721 C 355.15788,157.08873 356.8973,158.47776 358.64641,159.79444 C 358.67101,160.6988 358.72026,162.5076 358.74493,163.41204 C 362.36104,164.16799 360.92181,168.12617 361.29003,170.795 C 359.70207,171.97259 358.16541,173.20093 356.62069,174.42136 C 356.65483,178.18556 356.63737,181.95288 356.55866,185.72483 C 355.43104,185.74706 353.17586,185.79147 352.04823,185.81364 C 352.06843,190.10856 352.07493,194.40629 352.03405,198.70873 C 349.48857,200.82451 347.11052,203.12535 344.72596,205.41303 C 344.72267,208.03511 344.72823,210.66916 344.72768,213.30478 C 343.00292,214.74262 341.30549,216.20919 339.60146,217.66275 C 339.60773,218.49311 339.62035,220.15373 339.62677,220.98417 C 337.78994,222.63304 335.71002,223.94165 333.21535,224.22867 C 332.03158,225.62686 330.86096,227.03494 329.74186,228.48358 C 328.95043,228.69462 327.3674,229.11674 326.5759,229.32779 C 327.87332,230.09236 329.17879,230.86593 330.49226,231.64851 C 330.41817,236.82948 330.40792,242.01504 330.46556,247.20305 C 327.29967,249.81041 323.23932,249.66811 319.38259,249.6504 C 318.05561,251.28762 316.71495,252.91246 315.36547,254.52978 C 312.49076,254.5077 310.49224,256.4035 308.71192,258.37385 C 308.78052,260.83938 308.82436,263.31564 308.92002,265.79682 C 313.28818,268.12382 314.9574,274.48589 320.56762,274.24853 C 320.62458,278.37782 321.33405,283.0885 317.42866,285.78325 C 315.65633,285.73149 313.89371,285.70643 312.14085,285.70807 C 309.43745,289.6198 303.52559,286.93845 299.45742,287.6662 C 299.46053,286.53568 299.46677,284.27463 299.46991,283.14402 C 298.20582,283.1001 296.95155,283.06437 295.7071,283.03713 C 294.43253,284.52602 293.12695,285.98797 291.80911,287.4373 C 289.59945,287.70615 287.73868,288.83448 286.02547,290.16165 C 283.31945,290.34757 280.62122,290.264 277.9285,290.24905 C 277.8775,290.94541 277.77545,292.33812 277.72444,293.0345 C 275.69177,292.9969 273.66866,292.95696 271.65513,292.91467 C 269.9652,294.60107 268.56811,296.60054 268.43723,299.08127 C 267.03805,300.27773 265.63342,301.47045 264.25381,302.6836 C 264.34994,305.60749 264.39724,308.71526 261.32009,310.09827 C 261.93486,313.36172 259.50474,319.1399 264.15305,320.06266 C 264.10071,321.24691 264.05599,322.43962 264.0189,323.64086 C 257.69568,323.86507 251.3708,323.77415 245.05194,323.79075 C 245.02563,321.64419 244.99626,319.49803 244.9687,317.37136 C 240.38427,316.08295 243.18254,310.22428 242.38757,306.81093 C 241.71,306.76785 240.35483,306.68171 239.67725,306.63864 C 239.68924,305.58204 239.7132,303.46883 239.7252,302.41231 C 237.67147,302.18505 235.29547,302.48835 234.43118,300.15933 C 233.50624,300.1659 231.65634,300.17899 230.73142,300.18548 C 230.61473,298.451 230.50721,296.7239 230.40882,295.00398 C 226.54227,295.00461 222.68095,295.00194 218.82616,294.99216 C 218.76869,295.88446 218.65371,297.66906 218.59623,298.56127 C 217.50464,299.74044 216.43611,300.94035 215.37691,302.14926 C 213.41257,302.15279 211.45688,302.16783 209.50984,302.19437 C 208.4799,303.66987 207.46606,305.16479 206.4574,306.65946 C 203.58783,306.69698 200.7238,306.72783 197.87183,306.85385 C 196.85889,308.05508 195.75402,309.16485 194.55725,310.18277 C 194.52771,311.08463 194.46869,312.88849 194.43917,313.79026 C 192.24709,313.99458 189.82479,314.02402 189.23499,316.62268 C 187.34556,316.6219 185.46297,316.60498 183.59356,316.61204 C 182.4045,318.13154 181.24078,319.67768 180.08032,321.2235 C 176.58893,321.21113 173.10336,321.19727 169.62389,321.24769 C 167.97937,325.29514 163.08234,323.32667 159.7339,323.89342 C 158.33948,325.88539 156.60986,327.60828 154.55233,328.91157 C 154.50924,331.13447 154.48295,333.35379 154.47758,335.59793 C 153.79308,335.6471 152.42405,335.74547 151.73953,335.79464 C 151.72043,337.93425 151.69908,340.07563 151.68602,342.23473 C 150.11722,343.44709 148.58503,344.70268 147.04535,345.94958 C 147.21477,351.737 147.19717,357.53144 147.07695,363.32693 C 148.62296,364.56106 150.16343,365.81016 151.72815,367.05384 C 151.74188,372.15742 151.73199,377.26579 151.73867,382.37806 C 150.66453,383.42174 149.60367,384.48029 148.55608,385.55334 C 147.57158,385.57855 145.60258,385.62898 144.61807,385.65428 C 144.59255,386.65096 144.54144,388.64419 144.51587,389.6408 C 143.74537,390.40616 142.20434,391.9367 141.43381,392.70206 C 137.19394,392.6911 132.95793,392.68036 128.72686,392.7359 C 126.79266,395.20666 124.76659,397.60249 122.73331,399.9959 C 119.89405,400.00827 117.06045,399.99206 114.23438,399.95557 C 113.83792,397.77588 113.38885,395.57905 111.91001,393.86439 C 111.68224,388.21065 111.79295,382.55544 111.80456,376.90702 C 114.15213,374.60376 116.46463,372.26526 118.88966,370.04415 C 118.90889,367.58026 118.9147,365.12249 118.90731,362.67755 C 118.31937,362.35295 117.14348,361.70349 116.55555,361.37874 C 116.03543,353.6985 116.52342,345.97636 116.37699,338.28429 C 115.32231,338.28093 113.21296,338.27419 112.15826,338.27091 C 111.79029,335.91267 112.23211,332.80356 109.03275,332.52962 C 109.01739,326.74778 108.99632,320.96851 109.11886,315.19449 C 107.70297,313.97594 106.28875,312.76076 104.89226,311.55074 C 104.49463,309.32987 104.49235,306.74577 101.93293,305.90797 C 101.89595,304.23529 101.86602,302.57168 101.84318,300.91733 C 98.794682,299.56227 99.288879,294.6966 102.5311,294.01872 C 99.851257,291.65727 97.34852,289.11375 94.770463,286.65832 C 94.758219,285.86258 94.7338,284.27119 94.721583,283.47545 C 91.747726,282.88951 89.06834,281.4321 86.168765,280.63692 C 85.336018,278.56678 83.301799,278.39207 81.35823,278.29308 C 80.888576,277.78405 79.949284,276.76606 79.479631,276.25702 C 77.64886,276.03053 76.104771,275.27991 74.847377,274.00505 C 74.005084,273.98305 72.320511,273.93919 71.478218,273.91719 C 70.418863,269.37692 68.317225,265.1289 68.904713,260.31945 C 67.746726,259.25989 66.651856,258.14987 65.620046,256.98952 C 59.756548,256.72044 53.889549,257.05075 48.030921,256.8545 C 46.53585,256.92271 45.270308,256.42855 44.234362,255.37196 C 42.920796,254.04102 41.568119,252.75834 40.175194,251.53689 C 40.082221,247.621 40.307003,243.70065 39.999306,239.8016 C 38.970139,237.10286 37.270376,234.75675 35.681986,232.38614 C 35.645073,231.50121 35.571234,229.73118 35.534349,228.84616 C 34.883537,228.74999 33.581939,228.55742 32.931154,228.46125 C 32.934142,227.54413 32.940161,225.71004 32.943191,224.79291 C 30.119807,223.11858 31.244119,219.53216 30.817645,216.87523 C 28.478967,216.80296 26.135765,216.73521 23.810867,216.69072 C 23.803105,215.78472 23.787637,213.97272 23.779876,213.06664 C 22.596224,211.96266 21.424415,210.85649 20.26445,209.74843 C 19.318004,209.69628 17.4251,209.59212 16.478626,209.54005 C 16.460751,208.61243 16.425001,206.75727 16.407112,205.82965 C 14.245014,204.46567 13.652254,202.24393 13.735307,199.82219 C 14.928132,199.7752 17.313753,199.6813 18.506564,199.63432 C 18.504032,195.31496 18.547793,190.99858 18.331312,186.69074 C 16.906179,184.00522 15.726692,181.12902 13.454091,179.03266 C 12.885571,178.33748 11.748503,176.94719 11.179982,176.252 C 10.348107,176.18754 8.6844118,176.05888 7.8525365,175.99451 C 6.8161063,174.94786 5.7789981,173.91279 4.7411982,172.88917 C 4.7354289,171.10856 4.7288571,169.3343 4.7214691,167.56623 C 1.127915,166.83416 2.4612786,162.89705 2.0143706,160.25391 C -2.3033508,157.43096 1.4773395,152.15454 2.7078929,148.61871 C 3.5239821,147.60736 4.3972941,146.64881 5.3278151,145.74329 C 6.9410391,144.14844 8.3804364,142.39056 9.7079752,140.55505 C 11.784004,140.52498 13.862509,140.54808 15.951667,140.55332 C 17.158313,142.14253 18.411183,143.71083 19.652376,145.29315 C 20.693358,145.22486 22.775336,145.08843 23.816346,145.02022 C 23.813343,146.22765 23.807325,148.64244 23.804295,149.84986 C 31.611958,149.85433 39.421198,149.8201 47.232527,149.87774 C 47.445826,147.63368 47.033174,144.83509 49.954416,144.3324 C 50.024893,139.85626 50.002645,135.38295 50.15619,130.91456 C 52.895261,130.73146 56.024489,131.24661 58.049161,128.89957 C 58.97531,128.83824 60.827608,128.71577 61.753785,128.65452 C 61.742509,126.23928 61.744584,123.83491 61.749095,121.43187 C 65.520875,121.43634 69.3084,121.63118 73.07769,121.26623 C 73.398876,120.59471 74.041236,119.25187 74.362422,118.58033 C 76.88374,118.45504 78.428853,119.76286 79.089212,122.11961 C 80.468025,120.45851 81.880872,118.82585 83.328903,117.22435 C 85.720625,116.69895 87.934315,115.66952 89.52063,113.7478 C 91.992486,111.66788 95.128286,110.64895 97.929962,109.10618 C 97.243745,108.42079 95.871352,107.04984 95.18519,106.36437 C 95.074535,103.02072 92.810236,100.69294 90.188723,98.971624 C 90.133866,95.67041 90.139317,92.372724 90.205422,89.07959 C 92.197055,87.283712 94.127288,85.417357 95.977856,83.473552 C 97.672888,83.470647 99.375364,83.470024 101.0852,83.471754 C 104.08082,79.369711 107.81573,75.881969 111.78264,72.734715 C 111.78421,71.802713 111.78735,69.938793 111.7889,69.006778 C 112.76846,69.027061 114.72761,69.067709 115.70719,69.087991 C 116.08512,71.493771 118.12851,71.69174 120.11127,71.754788 C 121.07175,70.44915 122.15484,69.253393 123.36059,68.167819 C 123.42347,67.41695 123.54924,65.915224 123.61215,65.164355 C 127.31486,62.701339 124.80872,57.20063 125.61415,53.463216 C 127.43166,51.647056 130.01777,50.229906 130.82926,47.657868 C 130.09011,45.10322 127.4759,43.752715 125.73235,41.928724 C 127.02981,35.924382 121.43533,33.204348 118.34291,29.183366 C 116.93579,29.015295 115.53547,28.857572 114.14198,28.710116 C 113.68475,26.691365 113.87696,24.215883 111.84948,22.959126 C 111.76969,20.103754 111.77102,17.251192 111.78109,14.402088 C 117.84137,14.258616 123.94058,14.781908 129.98114,14.130971 C 130.28076,13.613171 130.88002,12.577405 131.17965,12.059591 C 133.75147,10.486752 136.59955,9.334302 138.89676,7.331292 C 141.42065,7.255562 143.94936,7.233392 146.48874,7.218522 C 147.69816,5.667372 148.93827,4.138782 150.17299,2.604242 C 151.20781,2.636652 153.27744,2.701502 154.31225,2.733922 C 154.39516,2.085572 154.56097,0.788852 154.64388,0.140502 z "
     style="fill:#4a92db;fill-opacity:1"
     id="path782" />
</svg>
